<svg viewBox="0 0 19 18" fill="currentColor"><path d="M18.7807 7.87021C18.7147 7.92467 18.6353 7.96803 18.5473 7.99765C18.4594 8.02728 18.3647 8.04255 18.2689 8.04255C18.1732 8.04255 18.0785 8.02728 17.9906 7.99765C17.9026 7.96803 17.8232 7.92467 17.7572 7.87021L10.2274 1.96277V17.4255C10.2274 17.5779 10.1504 17.724 10.0133 17.8317C9.87616 17.9395 9.69021 18 9.49633 18C9.30244 18 9.11649 17.9395 8.97939 17.8317C8.8423 17.724 8.76527 17.5779 8.76527 17.4255V1.96277L1.23544 7.87021C1.09972 7.97686 0.915643 8.03678 0.723704 8.03678C0.531766 8.03678 0.347689 7.97686 0.211968 7.87021C0.0762471 7.76356 1.43005e-09 7.61891 0 7.46809C-1.43005e-09 7.31726 0.0762471 7.17261 0.211968 7.06596L8.98459 0.17234C9.05059 0.117882 9.12998 0.0745251 9.21795 0.0449004C9.30592 0.0152757 9.40062 0 9.49633 0C9.59203 0 9.68674 0.0152757 9.7747 0.0449004C9.86267 0.0745251 9.94206 0.117882 10.0081 0.17234L18.7807 7.06596C18.85 7.11782 18.9052 7.18021 18.9429 7.24933C18.9806 7.31846 19 7.39288 19 7.46809C19 7.54329 18.9806 7.61771 18.9429 7.68684C18.9052 7.75596 18.85 7.81835 18.7807 7.87021Z"/></svg>