<svg viewBox="0 0 40 40" fill="currentColor"><path d="M20 2.0835C10.12 2.0835 2.08337 10.1202 2.08337 20.0002C2.08337 29.8802 10.12 37.9168 20 37.9168C29.88 37.9168 37.9167 29.8802 37.9167 20.0002C37.9167 10.1202 29.88 2.0835 20 2.0835ZM20 35.4168C11.4984 35.4168 4.58337 28.5018 4.58337 20.0002C4.58337 11.4985 11.4984 4.5835 20 4.5835C28.5017 4.5835 35.4167 11.4985 35.4167 20.0002C35.4167 28.5018 28.5017 35.4168 20 35.4168ZM26.1532 14.5216C26.2165 14.675 26.25 14.8368 26.25 15.0002V21.6668C26.25 22.3568 25.69 22.9168 25 22.9168C24.31 22.9168 23.75 22.3568 23.75 21.6668V18.0186L15.8834 25.8852C15.6401 26.1285 15.32 26.2518 15 26.2518C14.68 26.2518 14.36 26.1302 14.1167 25.8852C13.6283 25.3968 13.6283 24.6051 14.1167 24.1168L21.9833 16.2502H18.3334C17.6434 16.2502 17.0834 15.6902 17.0834 15.0002C17.0834 14.3102 17.6434 13.7502 18.3334 13.7502H25C25.1634 13.7502 25.3252 13.7837 25.4786 13.847C25.7836 13.9737 26.0265 14.2166 26.1532 14.5216Z"/></svg>