<!-- AUTO-GENERATED SVG SPRITE — DO NOT EDIT -->
<svg xmlns="http://www.w3.org/2000/svg" style="display:none">

  <symbol id="icon-arrow-down" viewBox="0 0 15 18">
    <path d="M14.4506 10.7062L7.7006 17.4562C7.64981 17.5096 7.58872 17.552 7.52104 17.581C7.45336 17.61 7.38049 17.625 7.30685 17.625C7.23321 17.625 7.16034 17.61 7.09265 17.581C7.02497 17.552 6.96388 17.5096 6.9131 17.4562L0.163097 10.7062C0.0586676 10.6018 -1.10034e-09 10.4602 0 10.3125C1.10034e-09 10.1648 0.0586676 10.0232 0.163097 9.91875C0.267526 9.81432 0.409162 9.75565 0.556847 9.75565C0.704531 9.75565 0.846168 9.81432 0.950597 9.91875L6.74435 15.7031V0.5625C6.74435 0.413316 6.80361 0.270242 6.9091 0.164752C7.01459 0.0592632 7.15766 0 7.30685 0C7.45603 0 7.59911 0.0592632 7.70459 0.164752C7.81008 0.270242 7.86935 0.413316 7.86935 0.5625V15.7031L13.6631 9.91875C13.7675 9.81432 13.9092 9.75565 14.0568 9.75565C14.2045 9.75565 14.3462 9.81432 14.4506 9.91875C14.555 10.0232 14.6137 10.1648 14.6137 10.3125C14.6137 10.4602 14.555 10.6018 14.4506 10.7062Z"/>
  </symbol>

  <symbol id="icon-arrow-up" viewBox="0 0 19 18">
    <path d="M18.7807 7.87021C18.7147 7.92467 18.6353 7.96803 18.5473 7.99765C18.4594 8.02728 18.3647 8.04255 18.2689 8.04255C18.1732 8.04255 18.0785 8.02728 17.9906 7.99765C17.9026 7.96803 17.8232 7.92467 17.7572 7.87021L10.2274 1.96277V17.4255C10.2274 17.5779 10.1504 17.724 10.0133 17.8317C9.87616 17.9395 9.69021 18 9.49633 18C9.30244 18 9.11649 17.9395 8.97939 17.8317C8.8423 17.724 8.76527 17.5779 8.76527 17.4255V1.96277L1.23544 7.87021C1.09972 7.97686 0.915643 8.03678 0.723704 8.03678C0.531766 8.03678 0.347689 7.97686 0.211968 7.87021C0.0762471 7.76356 1.43005e-09 7.61891 0 7.46809C-1.43005e-09 7.31726 0.0762471 7.17261 0.211968 7.06596L8.98459 0.17234C9.05059 0.117882 9.12998 0.0745251 9.21795 0.0449004C9.30592 0.0152757 9.40062 0 9.49633 0C9.59203 0 9.68674 0.0152757 9.7747 0.0449004C9.86267 0.0745251 9.94206 0.117882 10.0081 0.17234L18.7807 7.06596C18.85 7.11782 18.9052 7.18021 18.9429 7.24933C18.9806 7.31846 19 7.39288 19 7.46809C19 7.54329 18.9806 7.61771 18.9429 7.68684C18.9052 7.75596 18.85 7.81835 18.7807 7.87021Z"/>
  </symbol>

  <symbol id="icon-btn-right-black" viewBox="0 0 24 14">
    <path d="M16 14C16 13.258 16.733 12.15 17.475 11.22C18.429 10.02 19.569 8.973 20.876 8.174C21.856 7.575 23.044 7 24 7M24 7C23.044 7 21.855 6.425 20.876 5.826C19.569 5.026 18.429 3.979 17.475 2.781C16.733 1.85 16 0.74 16 0M24 7H0"/>
  </symbol>

  <symbol id="icon-btn-right" viewBox="0 0 24 24">
    <path d="M16 19C16 18.258 16.733 17.15 17.475 16.22C18.429 15.02 19.569 13.973 20.876 13.174C21.856 12.575 23.044 12 24 12M24 12C23.044 12 21.855 11.425 20.876 10.826C19.569 10.026 18.429 8.979 17.475 7.781C16.733 6.85 16 5.74 16 5M24 12H0"/>
  </symbol>

  <symbol id="icon-control-left" viewBox="0 0 12 24">
    <path d="M9.548 6.58023L8.487 5.52024L2.708 11.2972C2.61484 11.3898 2.54091 11.4999 2.49047 11.6211C2.44002 11.7424 2.41405 11.8724 2.41405 12.0037C2.41405 12.1351 2.44002 12.2651 2.49047 12.3863C2.54091 12.5076 2.61484 12.6177 2.708 12.7102L8.487 18.4902L9.547 17.4302L4.123 12.0052L9.548 6.58023Z"/>
  </symbol>

  <symbol id="icon-control-right" viewBox="0 0 12 24">
    <path d="M2.452 6.58023L3.513 5.52024L9.292 11.2972C9.38516 11.3898 9.45909 11.4999 9.50953 11.6211C9.55998 11.7424 9.58595 11.8724 9.58595 12.0037C9.58595 12.1351 9.55998 12.2651 9.50953 12.3863C9.45909 12.5076 9.38516 12.6177 9.292 12.7102L3.513 18.4902L2.453 17.4302L7.877 12.0052L2.452 6.58023Z"/>
  </symbol>

  <symbol id="icon-favicon" viewBox="0 0 260 260">
    <g clip-path="url(#clip0_3844_211)"><rect rx="40"/><rect x="16" y="44"/><path d="M13 13H247C254.18 13 260 18.8204 260 26V234C260 241.18 254.18 247 247 247H13C5.82036 247 0 241.18 0 234V26C0 18.8204 5.82036 13 13 13ZM188.039 175.961L234 130L188.039 84.0381L169.654 102.423L197.231 130L169.654 157.577L188.039 175.961ZM62.7696 130L90.3467 102.423L71.9619 84.0381L26 130L71.9619 175.961L90.3467 157.577L62.7696 130ZM120.176 195L167.492 65H139.824L92.5076 195H120.176Z"/></g>
  </symbol>

  <symbol id="icon-footer-icon" viewBox="0 0 40 40">
    <path d="M20 2.0835C10.12 2.0835 2.08337 10.1202 2.08337 20.0002C2.08337 29.8802 10.12 37.9168 20 37.9168C29.88 37.9168 37.9167 29.8802 37.9167 20.0002C37.9167 10.1202 29.88 2.0835 20 2.0835ZM20 35.4168C11.4984 35.4168 4.58337 28.5018 4.58337 20.0002C4.58337 11.4985 11.4984 4.5835 20 4.5835C28.5017 4.5835 35.4167 11.4985 35.4167 20.0002C35.4167 28.5018 28.5017 35.4168 20 35.4168ZM26.1532 14.5216C26.2165 14.675 26.25 14.8368 26.25 15.0002V21.6668C26.25 22.3568 25.69 22.9168 25 22.9168C24.31 22.9168 23.75 22.3568 23.75 21.6668V18.0186L15.8834 25.8852C15.6401 26.1285 15.32 26.2518 15 26.2518C14.68 26.2518 14.36 26.1302 14.1167 25.8852C13.6283 25.3968 13.6283 24.6051 14.1167 24.1168L21.9833 16.2502H18.3334C17.6434 16.2502 17.0834 15.6902 17.0834 15.0002C17.0834 14.3102 17.6434 13.7502 18.3334 13.7502H25C25.1634 13.7502 25.3252 13.7837 25.4786 13.847C25.7836 13.9737 26.0265 14.2166 26.1532 14.5216Z"/>
  </symbol>

  <symbol id="icon-heart-line" viewBox="0 0 24 24">
    <path d="M12.001 4.52853C14.35 2.42 17.98 2.49 20.2426 4.75736C22.5053 7.02472 22.583 10.637 20.4786 12.993L11.9999 21.485L3.52138 12.993C1.41705 10.637 1.49571 7.01901 3.75736 4.75736C6.02157 2.49315 9.64519 2.41687 12.001 4.52853ZM18.827 6.1701C17.3279 4.66794 14.9076 4.60701 13.337 6.01687L12.0019 7.21524L10.6661 6.01781C9.09098 4.60597 6.67506 4.66808 5.17157 6.17157C3.68183 7.66131 3.60704 10.0473 4.97993 11.6232L11.9999 18.6543L19.0201 11.6232C20.3935 10.0467 20.319 7.66525 18.827 6.1701Z"/>
  </symbol>

  <symbol id="icon-heart" viewBox="0 0 24 25">
    <path fill-rule="evenodd" clip-rule="evenodd" d="M12.6924 7.58373C12.3055 7.95505 11.6945 7.95505 11.3076 7.58373L10.6152 6.91927C9.80477 6.14154 8.70994 5.66667 7.5 5.66667C5.01472 5.66667 3 7.68139 3 10.1667C3 12.5493 4.28979 14.5167 6.15176 16.1332C8.01532 17.7511 10.2434 18.8241 11.5746 19.3717C11.853 19.4862 12.147 19.4862 12.4254 19.3717C13.7566 18.8241 15.9847 17.7511 17.8482 16.1332C19.7102 14.5167 21 12.5493 21 10.1667C21 7.68139 18.9853 5.66667 16.5 5.66667C15.2901 5.66667 14.1952 6.14154 13.3848 6.91927L12.6924 7.58373ZM12 5.47624C10.8321 4.35548 9.24649 3.66667 7.5 3.66667C3.91015 3.66667 1 6.57682 1 10.1667C1 16.5349 7.97034 20.0517 10.8138 21.2214C11.5796 21.5364 12.4204 21.5364 13.1862 21.2214C16.0297 20.0517 23 16.5349 23 10.1667C23 6.57682 20.0899 3.66667 16.5 3.66667C14.7535 3.66667 13.1679 4.35548 12 5.47624Z"/>
  </symbol>

  <symbol id="icon-id-card-line" viewBox="0 0 24 24">
    <path d="M3 6H21V18H3V6ZM2 4C1.44772 4 1 4.44772 1 5V19C1 19.5523 1.44772 20 2 20H22C22.5523 20 23 19.5523 23 19V5C23 4.44772 22.5523 4 22 4H2ZM13 8H19V10H13V8ZM18 12H13V14H18V12ZM10.5 10C10.5 11.3807 9.38071 12.5 8 12.5C6.61929 12.5 5.5 11.3807 5.5 10C5.5 8.61929 6.61929 7.5 8 7.5C9.38071 7.5 10.5 8.61929 10.5 10ZM8 13.5C6.067 13.5 4.5 15.067 4.5 17H11.5C11.5 15.067 9.933 13.5 8 13.5Z"/>
  </symbol>

  <symbol id="icon-logo" viewBox="0 0 24 27">
    <path d="M1.40535 26.0212C0.83831 26.0212 0.324015 25.6783 0.107747 25.1535C-0.111159 24.6286 0.0101622 24.022 0.411049 23.6211L8.05955 15.9726C8.61077 15.4241 9.49958 15.4241 10.0482 15.9726C10.5994 16.5212 10.5994 17.4127 10.0482 17.9613L2.39966 25.6098C2.13856 25.8735 1.77987 26.0212 1.40535 26.0212Z"/><path d="M23.9231 0.0769454L3.92359 20.0738C-0.254072 15.8962 -0.254072 9.12064 3.92359 4.94034C9.86832 -1.00439 23.9231 0.0769454 23.9231 0.0769454Z"/><path d="M19.0565 20.073C14.8789 24.2533 8.10334 24.2533 3.92303 20.073L23.9225 0.0761719C23.9225 0.0761719 25.0039 14.1283 19.0565 20.073Z"/>
  </symbol>

  <symbol id="icon-search-line" viewBox="0 0 24 24">
    <path d="M18.031 16.6168L22.3137 20.8995L20.8995 22.3137L16.6168 18.031C15.0769 19.263 13.124 20 11 20C6.032 20 2 15.968 2 11C2 6.032 6.032 2 11 2C15.968 2 20 6.032 20 11C20 13.124 19.263 15.0769 18.031 16.6168ZM16.0247 15.8748C17.2475 14.6146 18 12.8956 18 11C18 7.1325 14.8675 4 11 4C7.1325 4 4 7.1325 4 11C4 14.8675 7.1325 18 11 18C12.8956 18 14.6146 17.2475 15.8748 16.0247L16.0247 15.8748Z"/>
  </symbol>

  <symbol id="icon-search" viewBox="0 0 24 24">
    <path d="M18.5 18.5L22 22M21 11.5C21 6.25329 16.7467 2 11.5 2C6.25329 2 2 6.25329 2 11.5C2 16.7467 6.25329 21 11.5 21C16.7467 21 21 16.7467 21 11.5Z" stroke-width="1.5" stroke-linecap="round" stroke-linejoin="round"/>
  </symbol>

  <symbol id="icon-social-01" viewBox="0 0 20 20">
    <path d="M6.2918 18.1256C13.8371 18.1256 17.9652 11.8729 17.9652 6.45216C17.9652 6.27638 17.9613 6.09669 17.9535 5.92091C18.7566 5.34016 19.4496 4.62082 20 3.79669C19.2521 4.12944 18.458 4.34676 17.6449 4.44122C18.5011 3.92803 19.1421 3.12184 19.4492 2.17208C18.6438 2.64941 17.763 2.98612 16.8445 3.16779C16.2257 2.51024 15.4075 2.07487 14.5164 1.92899C13.6253 1.7831 12.711 1.93482 11.9148 2.36069C11.1186 2.78656 10.4848 3.46286 10.1115 4.28504C9.73825 5.10721 9.64619 6.02946 9.84961 6.90919C8.21874 6.82735 6.62328 6.4037 5.16665 5.66569C3.71002 4.92769 2.42474 3.89181 1.39414 2.62521C0.870333 3.52831 0.710047 4.59698 0.945859 5.61402C1.18167 6.63106 1.79589 7.52015 2.66367 8.1006C2.01219 8.07991 1.37498 7.90451 0.804688 7.58888V7.63966C0.804104 8.5874 1.13175 9.5061 1.73192 10.2396C2.3321 10.9731 3.16777 11.4761 4.09687 11.6631C3.49338 11.8282 2.85999 11.8523 2.2457 11.7334C2.50788 12.5485 3.01798 13.2614 3.70481 13.7726C4.39164 14.2838 5.22093 14.5678 6.07695 14.585C4.62369 15.7265 2.82848 16.3457 0.980469 16.3428C0.652739 16.3423 0.325333 16.3222 0 16.2826C1.87738 17.4871 4.06128 18.1268 6.2918 18.1256Z"/>
  </symbol>

  <symbol id="icon-social-02" viewBox="0 0 20 20">
    <g clip-path="url(#clip0_1_261)"><path d="M18.5195 0H1.47656C0.660156 0 0 0.644531 0 1.44141V18.5547C0 19.3516 0.660156 20 1.47656 20H18.5195C19.3359 20 20 19.3516 20 18.5586V1.44141C20 0.644531 19.3359 0 18.5195 0ZM5.93359 17.043H2.96484V7.49609H5.93359V17.043ZM4.44922 6.19531C3.49609 6.19531 2.72656 5.42578 2.72656 4.47656C2.72656 3.52734 3.49609 2.75781 4.44922 2.75781C5.39844 2.75781 6.16797 3.52734 6.16797 4.47656C6.16797 5.42188 5.39844 6.19531 4.44922 6.19531ZM17.043 17.043H14.0781V12.4023C14.0781 11.2969 14.0586 9.87109 12.5352 9.87109C10.9922 9.87109 10.7578 11.0781 10.7578 12.3242V17.043H7.79688V7.49609H10.6406V8.80078H10.6797C11.0742 8.05078 12.043 7.25781 13.4844 7.25781C16.4883 7.25781 17.043 9.23438 17.043 11.8047V17.043Z"/></g>
  </symbol>

  <symbol id="icon-social-03" viewBox="0 0 20 20">
    <g clip-path="url(#clip0_1_264)"><path d="M20 10C20 4.47715 15.5229 0 10 0C4.47715 0 0 4.47715 0 10C0 14.9912 3.65684 19.1283 8.4375 19.8785V12.8906H5.89844V10H8.4375V7.79688C8.4375 5.29063 9.93047 3.90625 12.2146 3.90625C13.3084 3.90625 14.4531 4.10156 14.4531 4.10156V6.5625H13.1922C11.95 6.5625 11.5625 7.3334 11.5625 8.125V10H14.3359L13.8926 12.8906H11.5625V19.8785C16.3432 19.1283 20 14.9912 20 10Z"/></g>
  </symbol>

  <symbol id="icon-social-04" viewBox="0 0 20 20">
    <path fill-rule="evenodd" clip-rule="evenodd" d="M10 0C4.47939 0 0 4.47939 0 10C0 15.5206 4.47939 20 10 20C15.5098 20 20 15.5206 20 10C20 4.47939 15.5098 0 10 0ZM16.6052 4.60954C17.7983 6.06291 18.5141 7.91756 18.5358 9.92406C18.2538 9.86987 15.4338 9.295 12.5922 9.65294C12.5271 9.51194 12.4729 9.36006 12.4078 9.20825C12.2343 8.79613 12.0391 8.37313 11.8438 7.97181C14.9891 6.692 16.4208 4.84816 16.6052 4.60954ZM10 1.47506C12.1692 1.47506 14.154 2.28851 15.6616 3.62256C15.5097 3.83948 14.2191 5.56399 11.1822 6.70281C9.78306 4.13232 8.23213 2.0282 7.9935 1.70282C8.63338 1.55097 9.30587 1.47506 10 1.47506ZM6.36662 2.27766C6.59437 2.58134 8.11281 4.69631 9.53363 7.21256C5.5423 8.2755 2.01736 8.25381 1.63774 8.25381C2.19089 5.60738 3.98047 3.40564 6.36662 2.27766ZM1.45336 10.0109C1.45336 9.92406 1.45336 9.83731 1.45336 9.75056C1.82213 9.76137 5.96529 9.81563 10.2278 8.53581C10.4773 9.013 10.705 9.50106 10.9219 9.98913C10.8134 10.0217 10.6941 10.0542 10.5857 10.0868C6.18221 11.5076 3.83948 15.3904 3.64425 15.7158C2.2885 14.2083 1.45336 12.2018 1.45336 10.0109ZM10 18.5466C8.026 18.5466 6.20391 17.8742 4.76139 16.7462C4.91323 16.4317 6.64856 13.0911 11.4642 11.41C11.4859 11.3991 11.4968 11.3991 11.5184 11.3883C12.7223 14.5011 13.2104 17.1149 13.3406 17.8633C12.3102 18.308 11.1822 18.5466 10 18.5466ZM14.7614 17.0824C14.6746 16.5618 14.2191 14.0673 13.1019 10.9978C15.7809 10.5748 18.1236 11.269 18.4165 11.3666C18.0478 13.7419 16.6811 15.7917 14.7614 17.0824Z"/>
  </symbol>

  <symbol id="icon-user-star-line" viewBox="0 0 24 24">
    <path d="M12 14V16C8.68629 16 6 18.6863 6 22H4C4 17.5817 7.58172 14 12 14ZM12 13C8.685 13 6 10.315 6 7C6 3.685 8.685 1 12 1C15.315 1 18 3.685 18 7C18 10.315 15.315 13 12 13ZM12 11C14.21 11 16 9.21 16 7C16 4.79 14.21 3 12 3C9.79 3 8 4.79 8 7C8 9.21 9.79 11 12 11ZM18 21.5L15.0611 23.0451L15.6224 19.7725L13.2447 17.4549L16.5305 16.9775L18 14L19.4695 16.9775L22.7553 17.4549L20.3776 19.7725L20.9389 23.0451L18 21.5Z"/>
  </symbol>

  <symbol id="icon-user" viewBox="0 0 24 24">
    <path d="M18.5588 19.5488C17.5654 16.8918 15.0036 15 12 15C8.99638 15 6.4346 16.8918 5.44117 19.5488M18.5588 19.5488C20.6672 17.7154 22 15.0134 22 12C22 6.47715 17.5228 2 12 2C6.47715 2 2 6.47715 2 12C2 15.0134 3.33285 17.7154 5.44117 19.5488M18.5588 19.5488C16.8031 21.0756 14.5095 22 12 22C9.49052 22 7.19694 21.0756 5.44117 19.5488M15 9C15 10.6569 13.6569 12 12 12C10.3431 12 9 10.6569 9 9C9 7.34315 10.3431 6 12 6C13.6569 6 15 7.34315 15 9Z" stroke-width="1.5" stroke-linejoin="round"/>
  </symbol>

  <symbol id="icon-website" viewBox="0 0 497 497">
    <g><path d="m497 128.5v312c0 11.046-8.954 20-20 20h-457c-11.046 0-20-8.954-20-20v-312z"/><g><path d="m290.498 294.5c0-23.196-18.804-42-42-42-7.031 0-13.659 1.728-19.482 4.782-13.386 7.021-19.327 21.053-19.327 37.218 0 23.196 15.613 36.457 38.809 36.457 16.214 0 30.282-3.645 37.282-17.099 3.014-5.792 4.718-12.376 4.718-19.358z"/><path d="m286.468 312.47c-6.73 14.21-21.2 24.03-37.97 24.03-23.2 0-42-18.8-42-42 0-16.77 9.82-31.24 24.03-37.97-2.59 5.45-4.03 11.54-4.03 17.97 0 23.2 18.8 42 42 42 6.43 0 12.52-1.44 17.97-4.03z"/></g><g><path d="m429.496 294.5c0-23.196-18.804-42-42-42-7.031 0-13.659 1.728-19.482 4.782-13.386 7.021-19.327 21.053-19.327 37.218 0 23.196 15.613 36.457 38.809 36.457 16.214 0 30.282-3.645 37.282-17.099 3.014-5.792 4.718-12.376 4.718-19.358z"/><path d="m425.466 312.47c-6.73 14.21-21.2 24.03-37.97 24.03-23.2 0-42-18.8-42-42 0-16.77 9.82-31.24 24.03-37.97-2.59 5.45-4.03 11.54-4.03 17.97 0 23.2 18.8 42 42 42 6.43 0 12.52-1.44 17.97-4.03z"/></g><path d="m497 148.5v-20l-276.011-12.798-220.989 12.798v20 292c0 11.046 8.954 20 20 20h15c-8.28 0-15-6.72-15-15v-291c0-3.314 2.686-6 6-6z"/><g><path d="m497 56.5v72.5h-497v-72.5c0-11.046 8.954-20 20-20h457c11.046 0 20 8.954 20 20z"/><g><path d="m227.758 108.5c-8.255 0-14.947-6.716-14.947-15s6.692-15 14.947-15h208.315c8.255 0 14.947 6.716 14.947 15s-6.692 15-14.947 15z"/><ellipse cx="160.869" cy="93.5" rx="14.947" ry="15"/><path d="m171.361 104.184 12.874-12.869-13.139 1.179z"/><path d="m150.592 82.608 12.562-12.516-2.693 10.408z"/><ellipse cx="98.034" cy="93.5" rx="14.947" ry="15"/><path d="m108.553 104.157 12.382-12.499-12.674.836z"/><path d="m87.757 82.608 12.371-12.459-2.502 10.351z"/><ellipse cx="32.947" cy="93.5" rx="14.947" ry="15"/><path d="m43.769 103.846 12.721-13.186-13.139 1.381z"/><path d="m22.67 82.608 11.622-12.038-1.753 9.93z"/></g><ellipse cx="173.849" cy="80.5" rx="14.947" ry="15"/><path d="m217.514 82.577 12.971-12.991-3.025 14.276z"/><path d="m446.83 103.915 13.149-13.179-10.185 3.381z"/><ellipse cx="110.946" cy="80.5" rx="14.947" ry="15"/><ellipse cx="45.495" cy="80.5" rx="14.947" ry="15"/><path d="m240.737 95.5c-8.255 0-14.947-6.716-14.947-15s6.692-15 14.947-15h208.315c8.255 0 14.947 6.716 14.947 15s-6.692 15-14.947 15z"/></g><path d="m135.893 215 226.628 2c5.523 0 10-4.477 10-10l3.479-7v-30c0-5.523-4.477-10-10-10h-224l-6.107 5c-5.523 0-10 4.477-10 10v30c0 5.523 4.477 10 10 10z"/><path d="m376 200v10c0 5.523-4.477 10-10 10h-234c-5.523 0-10-4.477-10-10v-40c0-5.523 4.477-10 10-10h10v33c0 3.866 3.134 7 7 7z"/><g><path d="m151.5 294.5c0-23.196-18.804-42-42-42-7.031 0-13.659 1.728-19.482 4.782-13.386 7.021-19.327 21.053-19.327 37.218 0 23.196 15.613 36.457 38.809 36.457 16.214 0 30.282-3.645 37.282-17.099 3.014-5.792 4.718-12.376 4.718-19.358z"/><path d="m147.47 312.47c-6.73 14.21-21.2 24.03-37.97 24.03-23.2 0-42-18.8-42-42 0-16.77 9.82-31.24 24.03-37.97-2.59 5.45-4.03 11.54-4.03 17.97 0 23.2 18.8 42 42 42 6.43 0 12.52-1.44 17.97-4.03z"/></g><g><g><path d="m149.5 374h-70c-4.142 0-7.5-3.358-7.5-7.5s3.358-7.5 7.5-7.5h70c4.142 0 7.5 3.358 7.5 7.5s-3.358 7.5-7.5 7.5z"/></g><g><path d="m149.5 404h-80c-4.142 0-7.5-3.358-7.5-7.5s3.358-7.5 7.5-7.5h80c4.142 0 7.5 3.358 7.5 7.5s-3.358 7.5-7.5 7.5z"/></g><g><path d="m149.5 434h-80c-4.142 0-7.5-3.358-7.5-7.5s3.358-7.5 7.5-7.5h80c4.142 0 7.5 3.358 7.5 7.5s-3.358 7.5-7.5 7.5z"/></g></g><g><g><path d="m288.5 374h-70c-4.142 0-7.5-3.358-7.5-7.5s3.358-7.5 7.5-7.5h70c4.143 0 7.5 3.358 7.5 7.5s-3.357 7.5-7.5 7.5z"/></g><g><path d="m288.5 404h-80c-4.142 0-7.5-3.358-7.5-7.5s3.358-7.5 7.5-7.5h80c4.143 0 7.5 3.358 7.5 7.5s-3.357 7.5-7.5 7.5z"/></g><g><path d="m288.5 434h-80c-4.142 0-7.5-3.358-7.5-7.5s3.358-7.5 7.5-7.5h80c4.143 0 7.5 3.358 7.5 7.5s-3.357 7.5-7.5 7.5z"/></g></g><g><g><path d="m427.5 374h-70c-4.143 0-7.5-3.358-7.5-7.5s3.357-7.5 7.5-7.5h70c4.143 0 7.5 3.358 7.5 7.5s-3.357 7.5-7.5 7.5z"/></g><g><path d="m427.5 404h-80c-4.143 0-7.5-3.358-7.5-7.5s3.357-7.5 7.5-7.5h80c4.143 0 7.5 3.358 7.5 7.5s-3.357 7.5-7.5 7.5z"/></g><g><path d="m427.5 434h-80c-4.143 0-7.5-3.358-7.5-7.5s3.357-7.5 7.5-7.5h80c4.143 0 7.5 3.358 7.5 7.5s-3.357 7.5-7.5 7.5z"/></g></g></g>
  </symbol>
</svg>
